<svg width="32" height="32" viewBox="0 0 32 32" fill="none" xmlns="http://www.w3.org/2000/svg">
  <!-- Scroll/Parchment background -->
  <rect x="5" y="3" width="22" height="20" rx="1" fill="#FEFCF3" stroke="#D4AF37" stroke-width="1.5"/>
  
  <!-- Scroll top curl left -->
  <ellipse cx="6" cy="3" rx="1.5" ry="1" fill="#FEFCF3" stroke="#D4AF37" stroke-width="1"/>
  
  <!-- Scroll top curl right -->
  <ellipse cx="26" cy="3" rx="1.5" ry="1" fill="#FEFCF3" stroke="#D4AF37" stroke-width="1"/>
  
  <!-- Scroll bottom curl left -->
  <ellipse cx="6" cy="23" rx="1.5" ry="1" fill="#FEFCF3" stroke="#D4AF37" stroke-width="1"/>
  
  <!-- Scroll bottom curl right -->
  <ellipse cx="26" cy="23" rx="1.5" ry="1" fill="#FEFCF3" stroke="#D4AF37" stroke-width="1"/>
  
  <!-- Written text lines on scroll -->
  <line x1="8" y1="8" x2="19" y2="8" stroke="#6B4423" stroke-width="1.3" stroke-linecap="round" opacity="0.8"/>
  <line x1="8" y1="11" x2="17" y2="11" stroke="#6B4423" stroke-width="1.3" stroke-linecap="round" opacity="0.8"/>
  <line x1="8" y1="14" x2="20" y2="14" stroke="#6B4423" stroke-width="1.3" stroke-linecap="round" opacity="0.8"/>
  <line x1="8" y1="17" x2="15" y2="17" stroke="#6B4423" stroke-width="1.3" stroke-linecap="round" opacity="0.8"/>
  
  <!-- Quill pen body -->
  <path d="M20 9L24 8.5L24.5 12.5L21 13L20 9Z" fill="#2C1810" stroke="#1A0F08" stroke-width="0.3"/>
  
  <!-- Quill pen tip/nib -->
  <path d="M20 9L19 10L20 11L21 10L20 9Z" fill="#654321"/>
  
  <!-- Quill feather -->
  <path d="M24 8.5L25 7.5L25.5 8.5L24.5 9.5L24 8.5Z" fill="#4A4A4A"/>
  <path d="M24.2 7.8L25.2 6.8L25.7 7.8L24.7 8.8L24.2 7.8Z" fill="#6B6B6B" opacity="0.7"/>
  
  <!-- Ink drop near pen tip -->
  <circle cx="20.5" cy="11" r="1" fill="#1A0F08" opacity="0.5"/>
</svg>
